<svg width="32" height="32" viewBox="0 0 32 32" fill="none" xmlns="http://www.w3.org/2000/svg">
<path d="M17.3334 5.33295H21.3334C22.0407 5.33295 22.7189 5.6139 23.219 6.11399C23.7191 6.61409 24.0001 7.29237 24.0001 7.99961V26.6663M2.66675 26.6663H6.66675M6.66675 26.6663L15.6774 28.9183C15.8739 28.9673 16.079 28.9709 16.2771 28.9288C16.4752 28.8867 16.6612 28.8001 16.8208 28.6754C16.9804 28.5507 17.1095 28.3914 17.1983 28.2093C17.2872 28.0273 17.3334 27.8275 17.3334 27.6249V6.08228C17.3332 5.67719 17.2406 5.27615 17.0628 4.91216C16.885 4.54818 16.6266 4.2295 16.3072 3.9803C15.9878 3.7311 15.6159 3.55793 15.2196 3.47395C14.8233 3.38997 14.4131 3.39738 14.0201 3.49561L8.68675 4.82895C8.10984 4.97315 7.59769 5.30604 7.23169 5.77472C6.86569 6.24339 6.66684 6.82096 6.66675 7.41561V26.6663ZM17.3334 26.6663H29.3334M13.3334 15.9996V16.0129" stroke="#FEFEFE" stroke-width="2" stroke-linecap="round" stroke-linejoin="round"/>
</svg>
