<svg width="11" height="10" viewBox="0 0 11 10" fill="none" xmlns="http://www.w3.org/2000/svg">
<g clip-path="url(#clip0_4001_11449)">
<path d="M9.24905 8.66531L6.80528 6.22154M1.91772 4.18506C1.91772 4.55946 1.99147 4.93021 2.13475 5.27611C2.27803 5.62202 2.48804 5.93632 2.75278 6.20107C3.01753 6.46582 3.33183 6.67582 3.67774 6.8191C4.02365 6.96238 4.39439 7.03613 4.7688 7.03613C5.1432 7.03613 5.51395 6.96238 5.85986 6.8191C6.20576 6.67582 6.52006 6.46582 6.78481 6.20107C7.04956 5.93632 7.25956 5.62202 7.40284 5.27611C7.54612 4.93021 7.61987 4.55946 7.61987 4.18506C7.61987 3.81065 7.54612 3.43991 7.40284 3.094C7.25956 2.74809 7.04956 2.43379 6.78481 2.16904C6.52006 1.9043 6.20576 1.69429 5.85986 1.55101C5.51395 1.40773 5.1432 1.33398 4.7688 1.33398C4.39439 1.33398 4.02365 1.40773 3.67774 1.55101C3.33183 1.69429 3.01753 1.9043 2.75278 2.16904C2.48804 2.43379 2.27803 2.74809 2.13475 3.094C1.99147 3.43991 1.91772 3.81065 1.91772 4.18506Z" stroke="#292D32" stroke-width="0.814592" stroke-linecap="round" stroke-linejoin="round"/>
</g>
<defs>
<clipPath id="clip0_4001_11449">
<rect width="9.7751" height="9.7751" fill="white" transform="translate(0.695801 0.111328)"/>
</clipPath>
</defs>
</svg>
