<svg width="20" height="22" viewBox="0 0 20 22" fill="none" xmlns="http://www.w3.org/2000/svg">
<rect width="19.25" height="22" rx="4" fill="#FF5757"/>
<path d="M3.20825 6.41667H16.0416M8.02075 10.0833V15.5833M11.2291 10.0833V15.5833M4.01034 6.41667L4.81242 17.4167C4.81242 17.9029 4.98143 18.3692 5.28227 18.713C5.58311 19.0568 5.99113 19.25 6.41659 19.25H12.8333C13.2587 19.25 13.6667 19.0568 13.9676 18.713C14.2684 18.3692 14.4374 17.9029 14.4374 17.4167L15.2395 6.41667M7.21867 6.41667V3.66667C7.21867 3.42355 7.30317 3.19039 7.45359 3.01849C7.60401 2.84658 7.80803 2.75 8.02075 2.75H11.2291C11.4418 2.75 11.6458 2.84658 11.7962 3.01849C11.9467 3.19039 12.0312 3.42355 12.0312 3.66667V6.41667" stroke="#FEFEFE" stroke-width="2" stroke-linecap="round" stroke-linejoin="round"/>
</svg>
